<svg width="25.308105" height="24.368652" viewBox="0 0 25.3081 24.3687" fill="none" xmlns="http://www.w3.org/2000/svg" xmlns:xlink="http://www.w3.org/1999/xlink">
	<desc>
			Created with Pixso.
	</desc>
	<defs/>
	<path id="Ellipse 71" d="M21.86 9.68C21.17 7.01 19.46 4.87 17.25 3.57C14.88 2.16 12.16 1.86 9.68 2.5C7.01 3.19 4.87 4.9 3.57 7.1C2.16 9.48 1.86 12.2 2.5 14.68C3.19 17.35 4.9 19.49 7.1 20.79C9.48 22.2 12.2 22.5 14.68 21.86C17.35 21.17 19.49 19.46 20.79 17.26L19.2 16.31C18.06 18.25 16.24 19.54 14.22 20.06C12.04 20.63 9.84 20.25 8.05 19.2C6.11 18.06 4.82 16.24 4.3 14.22C3.73 12.04 4.1 9.84 5.16 8.05C6.3 6.11 8.12 4.82 10.14 4.29C12.32 3.73 14.52 4.1 16.31 5.16C18.25 6.3 19.54 8.12 20.07 10.14L21.86 9.68Z" fill="#96317D" fill-opacity="1.000000" fill-rule="evenodd"/>
	<path id="Vector 27" d="M14.12 8.02L20.82 10.29L23.09 3.6" stroke="#96317D" stroke-opacity="1.000000" stroke-width="2.000000"/>
</svg>
