<svg width="34.000000" height="34.000000" viewBox="0 0 34 34" fill="none" xmlns="http://www.w3.org/2000/svg" xmlns:xlink="http://www.w3.org/1999/xlink">
	<desc>
			Created with Pixso.
	</desc>
	<defs/>
	<path id="Polygon 1" d="M14.4 4.5L4.87 21C3.72 23 5.16 25.5 7.47 25.5L26.52 25.5C28.83 25.5 30.27 23 29.12 21L19.59 4.5C18.44 2.5 15.55 2.5 14.4 4.5Z" fill="#C4C4C4" fill-opacity="0" fill-rule="evenodd"/>
	<path id="Polygon 1" d="M4.87 21C3.72 23 5.16 25.5 7.47 25.5L26.52 25.5C28.83 25.5 30.27 23 29.12 21L19.59 4.5C18.44 2.5 15.55 2.5 14.4 4.5L4.87 21ZM3.14 20C1.21 23.33 3.62 27.5 7.47 27.5L26.52 27.5C30.37 27.5 32.78 23.33 30.85 20L21.33 3.5C19.4 0.16 14.59 0.16 12.66 3.5L3.14 20Z" fill="#FFC464" fill-opacity="1.000000" fill-rule="evenodd"/>
	<path id="!" d="M18.8 9.8L15.83 9.8L16.32 17.11L18.31 17.11L18.8 9.8ZM16.57 20.96Q16.9 21.12 17.32 21.12Q17.73 21.12 18.06 20.95Q18.25 20.86 18.41 20.7Q18.63 20.48 18.74 20.22Q18.85 19.97 18.85 19.67Q18.85 19.34 18.72 19.07Q18.62 18.84 18.42 18.65Q18.3 18.54 18.15 18.45Q17.8 18.24 17.32 18.24Q16.84 18.24 16.48 18.45Q16.33 18.53 16.21 18.65Q16.02 18.83 15.91 19.06Q15.78 19.33 15.78 19.67Q15.78 19.97 15.89 20.23Q16 20.49 16.22 20.7Q16.38 20.86 16.57 20.96Z" fill="#FFC464" fill-opacity="1.000000" fill-rule="evenodd"/>
</svg>
